<svg width="16" height="19" viewBox="0 0 16 19" fill="none" xmlns="http://www.w3.org/2000/svg">
<path d="M3.55038 7.40793C4.74282 10.4238 5.66682 11.7098 8.17022 13.8376L10.7925 12.0618C11.8835 12.5487 13.2551 13.1947 14.4124 13.396C14.7985 13.4616 15.1155 13.905 15.0622 14.265L14.4322 17.6517C14.3639 18.0265 13.9098 18.334 13.5128 18.287C3.87947 16.5884 -0.723631 10.1821 0.634626 0.741482C0.667275 0.373175 1.12139 0.0655904 1.5072 0.132723L5.32639 0.812892C5.75082 0.872152 6.06833 1.31398 6.11919 1.55837C5.79495 2.81278 6.07316 4.46299 6.17246 5.63285L3.55038 7.40793Z" fill="#AE0F0F"/>
</svg>
