<svg width="20" height="20" viewBox="0 0 20 20" fill="none" xmlns="http://www.w3.org/2000/svg">
<path d="M5.33615 14.3113C6.03051 16.8083 7.99853 18.749 10.5051 19.4081C13.0118 20.0673 15.6799 19.3456 17.5126 17.513C19.3451 15.6803 20.0669 13.0122 19.4077 10.5055C18.7485 7.99899 16.8079 6.03097 14.3108 5.33661C13.6165 2.83958 11.6485 0.89895 9.14193 0.239792C6.63517 -0.419366 3.96707 0.302353 2.13441 2.13487C0.301863 3.96765 -0.419883 6.63574 0.239332 9.14239C0.89849 11.6489 2.83912 13.6169 5.33615 14.3113V14.3113ZM14.5263 8.13509H14.5266C15.8821 8.82633 16.8248 10.1246 17.0625 11.6275C17.3001 13.1305 16.804 14.6564 15.7277 15.732C14.6514 16.8077 13.1253 17.3033 11.6225 17.0648C10.1196 16.8265 8.82179 15.883 8.13145 14.5271C9.76175 14.3367 11.2802 13.6019 12.4407 12.4412C13.6014 11.2807 14.3362 9.76227 14.5265 8.13203L14.5263 8.13509ZM7.62125 12.0268C7.70237 10.8852 8.19246 9.81116 9.00175 9.0021C9.81082 8.19281 10.8849 7.70274 12.0264 7.62159C11.9453 8.76312 11.4552 9.8372 10.6459 10.6463C9.83685 11.4556 8.76277 11.9456 7.62125 12.0268V12.0268ZM7.28856 2.53553C8.16282 2.53619 9.02009 2.7778 9.76589 3.23407C10.5117 3.69033 11.1174 4.34335 11.516 5.12146C9.88569 5.31178 8.36728 6.04659 7.20679 7.2073C6.04602 8.36784 5.31126 9.88626 5.12094 11.5165C3.84813 10.862 2.93782 9.66873 2.64293 8.2679C2.34827 6.86731 2.70041 5.40837 3.60162 4.29621C4.50284 3.18405 5.85723 2.53728 7.28856 2.53553V2.53553Z" fill="white"/>
</svg>
